<svg xmlns="http://www.w3.org/2000/svg" width="16px" height="16px" viewBox="0 0 2048 2048">
	<circle fill-opacity="0.6" r="896" cx="1024" cy="1024" fill="#000000" style="stroke: rgb(16, 210, 171); stroke-width: 128px; stroke-opacity: 1;"></circle>
	<g transform="scale(0.89)"><path fill-opacity="1" transform="translate(450.56, 1678.88) rotate(180) scale(-1, 1)" fill="#10d2ab" d="M1061 57q-74 -43 -152.5 -64.5t-160.5 -21.5q-260 0 -406.5 156t-146.5 432t146.5 432t406.5 156q81 0 158 -21t155 -65v-193q-73 65 -146.5 94t-166.5 29q-173 0 -266 -112t-93 -320q0 -207 93.5 -319.5t265.5 -112.5q96 0 172 29.5t141 91.5v-191z"></path></g>
</svg>